<svg version="1.1" id="Layer_1" xmlns="http://www.w3.org/2000/svg" xmlns:xlink="http://www.w3.org/1999/xlink" x="0px" y="0px"
	 width="100%" viewBox="0 0 534 535" enable-background="new 0 0 534 535" xml:space="preserve">
<path fill="none" opacity="1.000000" stroke="none" 
	d="
M360.000000,536.000000 
	C240.027924,536.000000 120.555855,536.000000 1.041893,536.000000 
	C1.041893,357.736267 1.041893,179.472549 1.041893,1.104410 
	C178.888733,1.104410 356.777557,1.104410 534.833191,1.104410 
	C534.833191,179.333206 534.833191,357.666595 534.833191,536.000000 
	C476.805878,536.000000 418.652924,536.000000 360.000000,536.000000 
M296.528778,449.939209 
	C296.702393,449.638916 296.876007,449.338623 297.688446,448.774353 
	C298.763458,448.037445 299.796570,447.228516 300.919830,446.574402 
	C317.058685,437.176300 330.603699,425.142914 337.960327,407.596680 
	C341.975647,398.019745 344.725098,387.912048 348.746582,378.015289 
	C358.095154,384.589813 358.433929,386.847321 352.579224,396.008759 
	C346.568207,405.414795 340.098938,414.661774 335.341919,424.695068 
	C331.167267,433.500092 328.927551,443.252594 326.243927,452.703217 
	C325.823151,454.184967 327.138245,456.885376 328.491577,457.894501 
	C329.420715,458.587341 332.444214,457.902313 333.410095,456.826416 
	C335.638031,454.344666 337.459839,451.386444 338.946228,448.374664 
	C341.875092,442.440216 343.591461,435.714386 347.367981,430.429749 
	C356.369843,417.833008 366.589569,406.111481 375.725067,393.603821 
	C383.488129,382.975189 387.238342,380.204651 373.625885,370.071777 
	C369.257446,366.820038 365.101685,363.282654 360.524567,359.616394 
	C361.505829,359.344025 362.083801,358.974274 362.377411,359.132416 
	C372.069061,364.354462 381.724243,369.644104 391.408112,374.880737 
	C393.973816,376.268219 394.504120,378.091797 393.613525,380.888916 
	C390.060822,392.047241 392.654907,402.466187 398.191711,412.271881 
	C399.152740,413.973846 401.719757,414.769012 403.544983,415.982971 
	C404.363403,414.066223 405.949554,412.117920 405.872314,410.238007 
	C405.455933,400.106079 407.062225,390.432495 410.492554,380.875732 
	C414.171417,370.626556 412.291565,369.588898 404.798035,364.037659 
	C395.528168,357.170502 385.849426,350.856598 376.530334,344.053009 
	C375.215637,343.093231 374.936615,340.714783 374.876007,338.667664 
	C380.148346,338.646606 382.524231,335.760498 383.187866,330.744659 
	C383.437134,328.860657 384.491333,327.044830 385.384857,325.303802 
	C385.729401,324.632446 386.733185,323.730347 387.290802,323.821869 
	C397.379700,325.477661 405.991974,320.104187 415.240479,317.907318 
	C419.936096,316.791870 423.947235,316.170746 428.923462,317.828827 
	C442.969727,322.509094 456.891357,320.368652 470.586761,315.207642 
	C486.076019,309.370636 493.847565,297.795074 496.906555,281.946930 
	C494.077179,281.946930 491.600128,282.354523 489.304901,281.880951 
	C474.155121,278.755035 461.154388,272.266113 452.637939,258.519867 
	C451.545441,256.756500 448.586243,255.194443 446.497742,255.201950 
	C442.140137,255.217590 437.708618,256.052490 433.474854,257.179657 
	C432.056885,257.557159 430.133301,259.873901 430.172028,261.255798 
	C430.406952,269.648163 431.024719,278.036713 431.747284,286.406433 
	C432.325684,293.106110 433.691589,299.765594 433.863037,306.464508 
	C434.022522,312.697754 427.506470,316.633728 423.028900,313.235107 
	C420.530579,311.338806 418.279205,308.463867 417.132751,305.551208 
	C411.720551,291.801544 413.310394,278.224976 418.966003,264.867432 
	C419.549805,263.488556 420.100952,260.942841 419.431458,260.361389 
	C411.023529,253.058990 401.602783,247.478165 389.997437,249.233505 
	C381.702423,250.488159 373.618195,253.136383 365.149780,255.234680 
	C363.933594,253.289902 362.553406,250.661514 360.787415,248.324692 
	C345.070526,227.527512 329.083344,206.930679 313.628906,185.941208 
	C308.140778,178.487457 302.046967,170.664886 299.491577,162.043808 
	C294.821045,146.287201 290.270447,130.662689 281.782990,116.492630 
	C272.599579,101.160645 260.889862,88.255226 244.764252,79.976067 
	C229.209473,71.989975 212.809143,69.127251 195.252182,70.855232 
	C171.761078,73.167259 151.950150,81.802864 136.911774,100.510956 
	C125.926643,114.176712 121.768555,129.998322 120.787300,147.691559 
	C111.465553,152.372864 104.284546,159.699570 97.468979,167.287384 
	C94.813232,170.244049 94.476059,176.351212 100.053787,178.988495 
	C102.550003,180.168747 105.050430,181.421463 107.675423,182.231323 
	C113.389824,183.994400 119.185394,185.494415 124.989693,187.988434 
	C125.019974,189.964325 124.919373,191.952438 125.102661,193.914047 
	C126.008690,203.610641 126.989815,213.300232 127.107285,223.011765 
	C121.048370,220.718155 115.307442,222.897049 109.467285,224.146225 
	C108.132408,224.431732 106.142113,224.403336 105.255135,223.616150 
	C93.716705,213.375763 80.461723,209.575974 65.430504,213.093735 
	C57.699268,214.903061 49.965794,217.132385 44.171593,224.245575 
	C38.173313,229.339722 31.056873,233.580566 26.392553,239.692688 
	C13.869387,256.103058 9.571914,275.765259 8.146863,295.863129 
	C6.618657,317.415771 10.682801,337.942657 21.870939,356.902435 
	C28.700033,368.475281 37.049587,378.510864 48.424488,385.555298 
	C54.212406,389.139740 60.468792,393.264252 68.811966,390.002472 
	C72.372833,388.062988 74.269859,385.639374 72.187927,381.327698 
	C71.090935,379.055817 70.637115,376.449280 70.059608,373.955231 
	C68.287651,366.302826 66.596237,358.631744 65.503395,350.454010 
	C71.613655,357.638947 78.041702,364.440979 87.274605,367.645630 
	C89.295700,368.347137 91.431908,368.717010 95.017181,369.616425 
	C87.990265,344.752838 72.252396,326.069824 62.589512,305.047058 
	C70.823242,294.523651 78.896423,284.205444 87.857620,273.986511 
	C97.614868,274.616547 105.237938,269.970856 110.925697,264.801788 
	C118.158607,268.489227 124.551682,271.748505 130.993027,275.816772 
	C133.731216,292.059540 141.750763,305.656952 151.839035,318.676331 
	C148.584106,321.113647 145.263626,323.468964 142.088959,326.006683 
	C136.755829,330.269775 129.351807,333.166534 130.995071,342.229065 
	C131.430527,344.630737 131.651352,347.080139 132.221588,349.447174 
	C137.467758,371.223816 144.713806,392.579468 145.169205,415.342621 
	C145.251160,419.439331 147.078003,423.709137 152.131363,424.906006 
	C155.566544,421.928497 157.597443,414.954407 158.044724,406.537750 
	C158.784271,392.621521 156.306244,379.152435 153.454712,365.631866 
	C152.215408,359.755676 151.363953,353.312042 152.483551,347.542786 
	C153.998459,339.736481 161.862793,336.893127 168.477936,333.073883 
	C170.929504,335.052673 173.381058,337.031464 175.978699,339.900024 
	C176.652328,346.738037 177.478699,353.565216 177.966080,360.416473 
	C178.834167,372.620148 177.045670,384.555084 174.287125,396.431549 
	C173.456131,400.009247 175.503113,403.438019 178.903244,404.651917 
	C179.931564,405.019012 182.476135,402.103119 183.823990,400.312927 
	C184.945892,398.822845 185.348831,396.785248 186.041550,394.979187 
	C191.854660,379.823029 192.475342,363.998322 192.741440,348.272583 
	C199.485580,350.865234 206.229721,353.457886 213.004440,356.875214 
	C213.124619,357.843262 213.171997,358.826996 213.376190,359.776978 
	C215.439957,369.379059 219.881744,378.618622 217.131256,388.934692 
	C216.553162,391.102905 217.507568,393.745270 218.000504,396.118347 
	C218.765472,399.800964 220.765228,400.003662 223.061752,397.405029 
	C228.385513,391.381134 231.655182,384.331665 231.910965,376.270569 
	C232.082275,370.871185 231.401550,365.444794 231.981689,360.006073 
	C242.861160,360.493286 253.740631,360.980499 264.768158,361.474335 
	C264.926361,363.515930 264.588226,365.686890 265.325653,367.393005 
	C267.222290,371.781311 265.487335,374.748718 262.195007,377.277924 
	C258.692200,379.968933 255.033966,382.458466 251.546875,385.168915 
	C241.957840,392.622284 232.130814,399.808685 222.969589,407.759399 
	C216.897827,413.028931 218.265244,418.158325 226.117813,419.896851 
	C231.470322,421.081879 237.591614,421.781921 242.721725,420.361084 
	C253.361008,417.414581 263.569214,412.911499 273.991058,409.819794 
	C270.733429,421.130524 264.416016,430.237610 254.558258,436.792389 
	C246.450607,442.183441 238.291061,447.498352 230.249695,452.986450 
	C225.332413,456.342468 224.647873,460.289764 228.345276,464.834778 
	C235.686218,468.535553 243.586090,467.774780 251.011658,466.271088 
	C260.478821,464.354004 269.631683,460.884979 278.985931,458.906891 
	C278.708160,459.820465 278.086761,460.786957 278.217682,461.637634 
	C278.595154,464.090027 279.276093,466.495758 279.837860,468.919830 
	C282.222229,468.122833 284.626740,467.379120 286.976288,466.490112 
	C287.540161,466.276794 288.069611,465.657928 288.363312,465.094421 
	C290.971558,460.090057 293.523193,455.056213 296.020660,450.010681 
	C296.020660,450.010681 296.006805,450.083160 296.528778,449.939209 
M400.284882,189.930908 
	C403.924957,188.083496 407.884338,186.673416 411.138672,184.297546 
	C417.893616,179.366058 425.646545,174.931229 430.438354,168.416061 
	C435.641418,161.341751 443.388947,159.024933 449.412354,153.911270 
	C460.566010,144.442200 461.908691,129.719086 457.187469,116.516502 
	C455.393646,111.500214 453.469849,107.067322 447.714722,105.254265 
	C438.420319,102.326241 429.289337,99.533638 419.305817,101.933266 
	C408.671478,104.489311 398.394348,107.714149 390.226593,115.340584 
	C379.881622,124.999977 373.691437,136.550690 374.987396,151.247406 
	C376.091461,163.767853 372.408539,174.475845 363.256195,183.391678 
	C359.151642,187.390121 360.335693,191.395447 366.100891,192.858597 
	C377.458008,195.740906 388.579803,193.626419 400.284882,189.930908 
M463.459747,163.031189 
	C456.852997,168.941376 449.020844,171.603287 438.602783,171.095871 
	C445.100403,179.346771 450.631165,186.369949 456.161957,193.393127 
	C456.430420,192.920090 456.698914,192.447052 456.967377,191.974014 
	C459.139008,191.974014 461.389648,191.608597 463.464203,192.057358 
	C466.799957,192.778931 469.960571,194.323868 473.300110,195.011200 
	C480.297150,196.451385 487.343903,198.426102 494.404663,198.577759 
	C502.615601,198.754120 511.067169,195.588654 518.197937,202.013290 
	C525.765625,195.239395 528.806030,183.137054 525.750916,171.554886 
	C518.652344,144.643463 499.707245,129.840408 474.524384,121.620605 
	C475.346985,125.014236 476.723969,128.395462 476.900726,131.838303 
	C477.528137,144.058609 473.159668,154.353973 463.459747,163.031189 
M518.522461,207.326157 
	C517.302124,211.915405 513.623962,214.109146 509.588776,214.855133 
	C494.838593,217.582108 480.850708,215.321014 468.160309,206.987381 
	C465.498840,205.239594 463.224518,202.902252 460.580048,200.675095 
	C452.293793,212.101776 449.564484,224.556763 450.054230,237.836502 
	C450.378754,246.636459 452.346161,254.096970 462.850739,256.631470 
	C469.909851,258.334686 476.371521,262.392120 483.365997,264.525818 
	C488.466125,266.081635 494.091553,265.837067 499.311707,267.101471 
	C503.882965,268.208679 504.833466,270.956879 503.220490,275.392151 
	C502.946442,276.145691 502.822021,276.953644 502.530457,278.132935 
	C529.743408,262.341888 530.184570,231.347000 518.522461,207.326157 
z"/>
<path fill="#36B4E1" opacity="1.000000" stroke="none" 
	d="
M175.832611,339.010254 
	C173.381058,337.031464 170.929504,335.052673 167.956940,332.697418 
	C162.341446,327.567719 157.246933,322.814453 152.152435,318.061218 
	C141.750763,305.656952 133.731216,292.059540 130.921936,275.014801 
	C130.056259,270.001129 129.261658,265.789429 128.468048,261.583099 
	C126.950699,261.098755 125.518578,260.705383 124.132370,260.188812 
	C114.882668,256.741882 109.315262,248.385696 109.957504,238.961823 
	C110.378632,232.782471 114.905174,229.367142 120.814087,230.924133 
	C123.120018,231.531738 125.328217,232.510223 127.944450,233.450439 
	C127.944450,229.632065 127.944450,226.312180 127.944450,222.992294 
	C126.989815,213.300232 126.008690,203.610641 125.102661,193.914047 
	C124.919373,191.952438 125.019974,189.964325 125.381752,187.432449 
	C131.206512,187.433167 136.634369,188.372726 142.073227,188.441513 
	C147.786667,188.513763 150.259705,185.953400 149.770828,180.431320 
	C148.746460,168.860474 145.117508,158.020355 138.664017,148.330978 
	C135.315826,143.303940 131.230881,142.545441 125.649323,144.981934 
	C124.135513,145.642731 122.658974,146.388901 121.165329,147.095871 
	C121.768555,129.998322 125.926643,114.176712 136.911774,100.510956 
	C151.950150,81.802864 171.761078,73.167259 195.252182,70.855232 
	C212.809143,69.127251 229.209473,71.989975 244.764252,79.976067 
	C260.889862,88.255226 272.599579,101.160645 281.782990,116.492630 
	C290.270447,130.662689 294.821045,146.287201 299.491577,162.043808 
	C302.046967,170.664886 308.140778,178.487457 313.628906,185.941208 
	C329.083344,206.930679 345.070526,227.527512 360.787415,248.324692 
	C362.553406,250.661514 363.933594,253.289902 365.149780,255.234680 
	C373.618195,253.136383 381.702423,250.488159 389.997437,249.233505 
	C401.602783,247.478165 411.023529,253.058990 419.431458,260.361389 
	C420.100952,260.942841 419.549805,263.488556 418.966003,264.867432 
	C413.310394,278.224976 411.720551,291.801544 417.132751,305.551208 
	C418.279205,308.463867 420.530579,311.338806 423.028900,313.235107 
	C427.506470,316.633728 434.022522,312.697754 433.863037,306.464508 
	C433.691589,299.765594 432.325684,293.106110 431.747284,286.406433 
	C431.024719,278.036713 430.406952,269.648163 430.172028,261.255798 
	C430.133301,259.873901 432.056885,257.557159 433.474854,257.179657 
	C437.708618,256.052490 442.140137,255.217590 446.497742,255.201950 
	C448.586243,255.194443 451.545441,256.756500 452.637939,258.519867 
	C461.154388,272.266113 474.155121,278.755035 489.304901,281.880951 
	C491.600128,282.354523 494.077179,281.946930 496.906555,281.946930 
	C493.847565,297.795074 486.076019,309.370636 470.586761,315.207642 
	C456.891357,320.368652 442.969727,322.509094 428.923462,317.828827 
	C423.947235,316.170746 419.936096,316.791870 415.240479,317.907318 
	C405.991974,320.104187 397.379700,325.477661 387.290802,323.821869 
	C386.733185,323.730347 385.729401,324.632446 385.384857,325.303802 
	C384.491333,327.044830 383.437134,328.860657 383.187866,330.744659 
	C382.524231,335.760498 380.148346,338.646606 374.055847,338.791992 
	C368.972595,339.264648 364.676758,339.392609 360.455231,340.020203 
	C355.750244,340.719666 349.119995,346.364044 349.011108,349.393127 
	C348.667877,358.942566 348.364349,368.493408 348.045441,378.043732 
	C344.725098,387.912048 341.975647,398.019745 337.960327,407.596680 
	C330.603699,425.142914 317.058685,437.176300 300.919830,446.574402 
	C299.796570,447.228516 298.763458,448.037445 297.114319,448.988220 
	C296.362427,449.495758 296.184601,449.789459 296.006805,450.083160 
	C296.006805,450.083160 296.020660,450.010681 295.684631,450.008606 
	C289.872437,452.699341 284.396240,455.392151 278.920044,458.084961 
	C269.631683,460.884979 260.478821,464.354004 251.011658,466.271088 
	C243.586090,467.774780 235.686218,468.535553 228.205551,464.151031 
	C229.838531,461.596344 231.294800,459.153656 233.444489,457.963837 
	C239.397461,454.668884 245.752289,452.104889 251.740829,448.868103 
	C260.619568,444.069153 269.956879,439.770264 277.890472,433.683319 
	C284.036072,428.968231 288.805908,422.160309 293.202301,415.620514 
	C294.836334,413.189819 294.901306,408.214264 293.486206,405.577515 
	C291.427551,401.741577 286.861755,402.483521 283.169891,404.150604 
	C280.006042,405.579224 277.019562,407.400635 273.954651,409.048340 
	C263.569214,412.911499 253.361008,417.414581 242.721725,420.361084 
	C237.591614,421.781921 231.470322,421.081879 226.117813,419.896851 
	C218.265244,418.158325 216.897827,413.028931 222.969589,407.759399 
	C232.130814,399.808685 241.957840,392.622284 251.546875,385.168915 
	C255.033966,382.458466 258.692200,379.968933 262.195007,377.277924 
	C265.487335,374.748718 267.222290,371.781311 265.325653,367.393005 
	C264.588226,365.686890 264.926361,363.515930 264.768158,361.474335 
	C253.740631,360.980499 242.861160,360.493286 231.148865,359.929565 
	C224.535324,358.585571 218.754593,357.318054 212.973862,356.050568 
	C206.229721,353.457886 199.485580,350.865234 192.085922,348.012756 
	C186.231155,344.838715 181.031891,341.924469 175.832611,339.010254 
M260.589478,254.993515 
	C258.809235,255.378510 257.003326,255.672150 255.252823,256.163177 
	C243.028931,259.592041 235.856674,271.741699 239.077148,283.499237 
	C241.675385,292.985077 251.590805,299.127625 263.131226,298.725861 
	C265.766174,304.307465 268.319214,309.715546 271.443329,316.333344 
	C280.050659,301.422028 290.842224,293.213593 307.264618,293.859772 
	C323.224640,294.487793 335.346954,300.798950 343.018280,315.423401 
	C344.017487,305.477142 342.814880,295.918518 337.989410,287.306610 
	C330.134705,273.288574 317.850067,266.693024 301.468048,268.016876 
	C300.968292,259.753448 295.710938,256.705688 288.978760,254.779205 
	C279.731934,252.133102 270.607086,252.947540 260.589478,254.993515 
M188.018250,140.479385 
	C186.643799,143.057449 184.928467,145.514465 183.961456,148.237228 
	C181.472610,155.244888 184.242508,162.909927 190.273117,166.636475 
	C196.238983,170.322998 201.920731,169.538406 207.170425,164.303131 
	C212.184662,159.302719 213.742523,149.699112 210.726379,144.295731 
	C206.523834,136.766968 196.242218,133.756241 188.018250,140.479385 
z"/>
<path fill="#36B4E1" opacity="1.000000" stroke="none" 
	d="
M86.969597,273.887238 
	C78.896423,284.205444 70.823242,294.523651 62.589512,305.047058 
	C72.252396,326.069824 87.990265,344.752838 95.017181,369.616425 
	C91.431908,368.717010 89.295700,368.347137 87.274605,367.645630 
	C78.041702,364.440979 71.613655,357.638947 65.225479,350.714172 
	C64.947571,350.974304 64.946976,351.048889 65.229568,350.825928 
	C65.057076,350.103699 64.601982,349.604401 64.121246,348.730469 
	C59.498402,339.771484 54.424271,331.546875 46.944973,323.687683 
	C45.964813,326.400757 45.202545,327.591888 45.143658,328.816803 
	C44.595383,340.221588 45.795601,351.219299 51.853523,361.353943 
	C57.497757,370.796448 62.691772,380.508118 68.083977,390.101288 
	C60.468792,393.264252 54.212406,389.139740 48.424488,385.555298 
	C37.049587,378.510864 28.700033,368.475281 21.870939,356.902435 
	C10.682801,337.942657 6.618657,317.415771 8.146863,295.863129 
	C9.571914,275.765259 13.869387,256.103058 26.392553,239.692688 
	C31.056873,233.580566 38.173313,229.339722 44.895187,224.131622 
	C50.816177,223.043228 56.080696,220.979141 61.198639,221.294403 
	C77.932350,222.325211 90.286980,235.944336 89.906471,252.812119 
	C89.747581,259.855652 87.996651,266.863281 86.969597,273.887238 
z"/>
<path fill="#36B4E1" opacity="1.000000" stroke="none" 
	d="
M399.895508,190.026703 
	C388.579803,193.626419 377.458008,195.740906 366.100891,192.858597 
	C360.335693,191.395447 359.151642,187.390121 363.256195,183.391678 
	C372.408539,174.475845 376.091461,163.767853 374.987396,151.247406 
	C373.691437,136.550690 379.881622,124.999977 390.226593,115.340584 
	C398.394348,107.714149 408.671478,104.489311 419.305817,101.933266 
	C429.289337,99.533638 438.420319,102.326241 447.714722,105.254265 
	C453.469849,107.067322 455.393646,111.500214 457.187469,116.516502 
	C461.908691,129.719086 460.566010,144.442200 449.412354,153.911270 
	C443.388947,159.024933 435.641418,161.341751 430.438354,168.416061 
	C425.646545,174.931229 417.893616,179.366058 411.138672,184.297546 
	C407.884338,186.673416 403.924957,188.083496 399.895508,190.026703 
z"/>
<path fill="#36B4E1" opacity="1.000000" stroke="none" 
	d="
M463.717224,162.781586 
	C473.159668,154.353973 477.528137,144.058609 476.900726,131.838303 
	C476.723969,128.395462 475.346985,125.014236 474.524384,121.620605 
	C499.707245,129.840408 518.652344,144.643463 525.750916,171.554886 
	C528.806030,183.137054 525.765625,195.239395 518.197937,202.013290 
	C511.067169,195.588654 502.615601,198.754120 494.404663,198.577759 
	C487.343903,198.426102 480.297150,196.451385 473.300110,195.011200 
	C469.960571,194.323868 466.799957,192.778931 463.464203,192.057358 
	C461.389648,191.608597 459.139008,191.974014 456.967377,191.974014 
	C456.698914,192.447052 456.430420,192.920090 456.161957,193.393127 
	C450.631165,186.369949 445.100403,179.346771 438.602783,171.095871 
	C449.020844,171.603287 456.852997,168.941376 463.717224,162.781586 
z"/>
<path fill="#36B4E1" opacity="1.000000" stroke="none" 
	d="
M518.822144,207.526703 
	C530.184570,231.347000 529.743408,262.341888 502.530457,278.132935 
	C502.822021,276.953644 502.946442,276.145691 503.220490,275.392151 
	C504.833466,270.956879 503.882965,268.208679 499.311707,267.101471 
	C494.091553,265.837067 488.466125,266.081635 483.365997,264.525818 
	C476.371521,262.392120 469.909851,258.334686 462.850739,256.631470 
	C452.346161,254.096970 450.378754,246.636459 450.054230,237.836502 
	C449.564484,224.556763 452.293793,212.101776 460.580048,200.675095 
	C463.224518,202.902252 465.498840,205.239594 468.160309,206.987381 
	C480.850708,215.321014 494.838593,217.582108 509.588776,214.855133 
	C513.623962,214.109146 517.302124,211.915405 518.822144,207.526703 
z"/>
<path fill="#026AA8" opacity="1.000000" stroke="none" 
	d="
M348.395996,378.029510 
	C348.364349,368.493408 348.667877,358.942566 349.011108,349.393127 
	C349.119995,346.364044 355.750244,340.719666 360.455231,340.020203 
	C364.676758,339.392609 368.972595,339.264648 373.706940,338.954651 
	C374.936615,340.714783 375.215637,343.093231 376.530334,344.053009 
	C385.849426,350.856598 395.528168,357.170502 404.798035,364.037659 
	C412.291565,369.588898 414.171417,370.626556 410.492554,380.875732 
	C407.062225,390.432495 405.455933,400.106079 405.872314,410.238007 
	C405.949554,412.117920 404.363403,414.066223 403.544983,415.982971 
	C401.719757,414.769012 399.152740,413.973846 398.191711,412.271881 
	C392.654907,402.466187 390.060822,392.047241 393.613525,380.888916 
	C394.504120,378.091797 393.973816,376.268219 391.408112,374.880737 
	C381.724243,369.644104 372.069061,364.354462 362.377411,359.132416 
	C362.083801,358.974274 361.505829,359.344025 360.524567,359.616394 
	C365.101685,363.282654 369.257446,366.820038 373.625885,370.071777 
	C387.238342,380.204651 383.488129,382.975189 375.725067,393.603821 
	C366.589569,406.111481 356.369843,417.833008 347.367981,430.429749 
	C343.591461,435.714386 341.875092,442.440216 338.946228,448.374664 
	C337.459839,451.386444 335.638031,454.344666 333.410095,456.826416 
	C332.444214,457.902313 329.420715,458.587341 328.491577,457.894501 
	C327.138245,456.885376 325.823151,454.184967 326.243927,452.703217 
	C328.927551,443.252594 331.167267,433.500092 335.341919,424.695068 
	C340.098938,414.661774 346.568207,405.414795 352.579224,396.008759 
	C358.433929,386.847321 358.095154,384.589813 348.395996,378.029510 
z"/>
<path fill="#036BA9" opacity="1.000000" stroke="none" 
	d="
M87.413605,273.936890 
	C87.996651,266.863281 89.747581,259.855652 89.906471,252.812119 
	C90.286980,235.944336 77.932350,222.325211 61.198639,221.294403 
	C56.080696,220.979141 50.816177,223.043228 45.206985,224.002914 
	C49.965794,217.132385 57.699268,214.903061 65.430504,213.093735 
	C80.461723,209.575974 93.716705,213.375763 105.255135,223.616150 
	C106.142113,224.403336 108.132408,224.431732 109.467285,224.146225 
	C115.307442,222.897049 121.048370,220.718155 127.525864,223.002029 
	C127.944450,226.312180 127.944450,229.632065 127.944450,233.450439 
	C125.328217,232.510223 123.120018,231.531738 120.814087,230.924133 
	C114.905174,229.367142 110.378632,232.782471 109.957504,238.961823 
	C109.315262,248.385696 114.882668,256.741882 124.132370,260.188812 
	C125.518578,260.705383 126.950699,261.098755 128.468048,261.583099 
	C129.261658,265.789429 130.056259,270.001129 130.897812,274.610291 
	C124.551682,271.748505 118.158607,268.489227 110.925697,264.801788 
	C105.237938,269.970856 97.614868,274.616547 87.413605,273.936890 
z"/>
<path fill="#026AA8" opacity="1.000000" stroke="none" 
	d="
M151.995728,318.368774 
	C157.246933,322.814453 162.341446,327.567719 167.632965,332.561096 
	C161.862793,336.893127 153.998459,339.736481 152.483551,347.542786 
	C151.363953,353.312042 152.215408,359.755676 153.454712,365.631866 
	C156.306244,379.152435 158.784271,392.621521 158.044724,406.537750 
	C157.597443,414.954407 155.566544,421.928497 152.131363,424.906006 
	C147.078003,423.709137 145.251160,419.439331 145.169205,415.342621 
	C144.713806,392.579468 137.467758,371.223816 132.221588,349.447174 
	C131.651352,347.080139 131.430527,344.630737 130.995071,342.229065 
	C129.351807,333.166534 136.755829,330.269775 142.088959,326.006683 
	C145.263626,323.468964 148.584106,321.113647 151.995728,318.368774 
z"/>
<path fill="#F87D24" opacity="1.000000" stroke="none" 
	d="
M120.976318,147.393707 
	C122.658974,146.388901 124.135513,145.642731 125.649323,144.981934 
	C131.230881,142.545441 135.315826,143.303940 138.664017,148.330978 
	C145.117508,158.020355 148.746460,168.860474 149.770828,180.431320 
	C150.259705,185.953400 147.786667,188.513763 142.073227,188.441513 
	C136.634369,188.372726 131.206512,187.433167 125.360802,186.989197 
	C119.185394,185.494415 113.389824,183.994400 107.675423,182.231323 
	C105.050430,181.421463 102.550003,180.168747 100.053787,178.988495 
	C94.476059,176.351212 94.813232,170.244049 97.468979,167.287384 
	C104.284546,159.699570 111.465553,152.372864 120.976318,147.393707 
z"/>
<path fill="#036BA9" opacity="1.000000" stroke="none" 
	d="
M273.972839,409.434082 
	C277.019562,407.400635 280.006042,405.579224 283.169891,404.150604 
	C286.861755,402.483521 291.427551,401.741577 293.486206,405.577515 
	C294.901306,408.214264 294.836334,413.189819 293.202301,415.620514 
	C288.805908,422.160309 284.036072,428.968231 277.890472,433.683319 
	C269.956879,439.770264 260.619568,444.069153 251.740829,448.868103 
	C245.752289,452.104889 239.397461,454.668884 233.444489,457.963837 
	C231.294800,459.153656 229.838531,461.596344 228.026001,463.830078 
	C224.647873,460.289764 225.332413,456.342468 230.249695,452.986450 
	C238.291061,447.498352 246.450607,442.183441 254.558258,436.792389 
	C264.416016,430.237610 270.733429,421.130524 273.972839,409.434082 
z"/>
<path fill="#026AA8" opacity="1.000000" stroke="none" 
	d="
M175.905670,339.455139 
	C181.031891,341.924469 186.231155,344.838715 191.751404,347.897827 
	C192.475342,363.998322 191.854660,379.823029 186.041550,394.979187 
	C185.348831,396.785248 184.945892,398.822845 183.823990,400.312927 
	C182.476135,402.103119 179.931564,405.019012 178.903244,404.651917 
	C175.503113,403.438019 173.456131,400.009247 174.287125,396.431549 
	C177.045670,384.555084 178.834167,372.620148 177.966080,360.416473 
	C177.478699,353.565216 176.652328,346.738037 175.905670,339.455139 
z"/>
<path fill="#036BA9" opacity="1.000000" stroke="none" 
	d="
M68.447968,390.051880 
	C62.691772,380.508118 57.497757,370.796448 51.853523,361.353943 
	C45.795601,351.219299 44.595383,340.221588 45.143658,328.816803 
	C45.202545,327.591888 45.964813,326.400757 46.944973,323.687683 
	C54.424271,331.546875 59.498402,339.771484 64.061653,349.032471 
	C64.334122,350.155731 64.640549,350.602295 64.946976,351.048889 
	C64.946976,351.048889 64.947571,350.974304 64.910538,350.971130 
	C66.596237,358.631744 68.287651,366.302826 70.059608,373.955231 
	C70.637115,376.449280 71.090935,379.055817 72.187927,381.327698 
	C74.269859,385.639374 72.372833,388.062988 68.447968,390.051880 
z"/>
<path fill="#026AA8" opacity="1.000000" stroke="none" 
	d="
M212.989151,356.462891 
	C218.754593,357.318054 224.535324,358.585571 230.709061,359.941772 
	C231.401550,365.444794 232.082275,370.871185 231.910965,376.270569 
	C231.655182,384.331665 228.385513,391.381134 223.061752,397.405029 
	C220.765228,400.003662 218.765472,399.800964 218.000504,396.118347 
	C217.507568,393.745270 216.553162,391.102905 217.131256,388.934692 
	C219.881744,378.618622 215.439957,369.379059 213.376190,359.776978 
	C213.171997,358.826996 213.124619,357.843262 212.989151,356.462891 
z"/>
<path fill="#036BA9" opacity="1.000000" stroke="none" 
	d="
M278.953003,458.495911 
	C284.396240,455.392151 289.872437,452.699341 295.720093,450.018799 
	C293.523193,455.056213 290.971558,460.090057 288.363312,465.094421 
	C288.069611,465.657928 287.540161,466.276794 286.976288,466.490112 
	C284.626740,467.379120 282.222229,468.122833 279.837860,468.919800 
	C279.276093,466.495758 278.595154,464.090027 278.217682,461.637634 
	C278.086761,460.786957 278.708160,459.820465 278.953003,458.495911 
z"/>
<path fill="#036BA9" opacity="1.000000" stroke="none" 
	d="
M296.267792,450.011169 
	C296.184601,449.789459 296.362427,449.495758 296.794922,449.120178 
	C296.876007,449.338623 296.702393,449.638916 296.267792,450.011169 
z"/>
<path fill="#036BA9" opacity="1.000000" stroke="none" 
	d="
M261.013733,254.955780 
	C270.607086,252.947540 279.731934,252.133102 288.978760,254.779205 
	C295.710938,256.705688 300.968292,259.753448 301.468048,268.016876 
	C317.850067,266.693024 330.134705,273.288574 337.989410,287.306610 
	C342.814880,295.918518 344.017487,305.477142 343.018280,315.423401 
	C335.346954,300.798950 323.224640,294.487793 307.264618,293.859772 
	C290.842224,293.213593 280.050659,301.422028 271.443329,316.333344 
	C268.319214,309.715546 265.766174,304.307465 263.131226,298.725861 
	C251.590805,299.127625 241.675385,292.985077 239.077148,283.499237 
	C235.856674,271.741699 243.028931,259.592041 255.252823,256.163177 
	C257.003326,255.672150 258.809235,255.378510 261.013733,254.955780 
M280.931274,277.221130 
	C284.300903,271.576538 283.609741,265.873077 279.221558,263.112457 
	C272.459045,258.858154 260.007660,261.090027 255.011475,267.452026 
	C251.089417,272.446289 252.387360,279.351044 258.274445,281.604126 
	C266.209930,284.641144 273.922974,283.999390 280.931274,277.221130 
z"/>
<path fill="none" opacity="1.000000" stroke="none" 
	d="
M188.290894,140.220200 
	C196.242218,133.756241 206.523834,136.766968 210.726379,144.295731 
	C213.742523,149.699112 212.184662,159.302719 207.170425,164.303131 
	C201.920731,169.538406 196.238983,170.322998 190.273117,166.636475 
	C184.242508,162.909927 181.472610,155.244888 183.961456,148.237228 
	C184.928467,145.514465 186.643799,143.057449 188.290894,140.220200 
z"/>
<path fill="#FFFFFF" opacity="1.000000" stroke="none" 
	d="
M65.229568,350.825928 
	C64.640549,350.602295 64.334122,350.155731 64.087296,349.407104 
	C64.601982,349.604401 65.057076,350.103699 65.229568,350.825928 
z"/>
<path fill="#35B3E0" opacity="1.000000" stroke="none" 
	d="
M280.718018,277.537018 
	C273.922974,283.999390 266.209930,284.641144 258.274445,281.604126 
	C252.387360,279.351044 251.089417,272.446289 255.011475,267.452026 
	C260.007660,261.090027 272.459045,258.858154 279.221558,263.112457 
	C283.609741,265.873077 284.300903,271.576538 280.718018,277.537018 
z"/>
</svg>
